# xmcd
#
# Track frame offsets: 
#        150
#        8862
#        19947
#        32815
#        43602
#        55742
#        68235
#        79552
#        89757
#        105737
#        118547
#        130029
#        144485
#
# Disc length: 2097 seconds
#
# Revision: 5
# Processed by: cddbd v1.5.2PL0 Copyright (c) Steve Scherf et al.
# Submitted via: ExactAudioCopy v1.3
#
DISCID=a9082f0d
DTITLE=Chris Hillman and Herb Pedersen - Bakersfield Bound (1996)
DYEAR=1996
DGENRE=Country
TTITLE0=Playboy
TTITLE1=Which One Is To Blame
TTITLE2=Close Up The Honky Tonks
TTITLE3=Brand New Heartache
TTITLE4=Congratulations, Anyway
TTITLE5=It's Not Love (But It's Not Bad)
TTITLE6=He Don't Deserve You Anymore
TTITLE7=There Goes My Love
TTITLE8=My Baby's Gone
TTITLE9=The Lost Highway
TTITLE10=Time Goes So Slow
TTITLE11=Just Tell Me Darlin'
TTITLE12=Bakersfield Bound
EXTD=YEAR: 1996
EXTT0=
EXTT1=
EXTT2=
EXTT3=
EXTT4=
EXTT5=
EXTT6=
EXTT7=
EXTT8=
EXTT9=
EXTT10=
EXTT11=
EXTT12=
PLAYORDER=
